<svg height="64" width="64" xmlns="http://www.w3.org/2000/svg"><path d="m4.8364028.4891005 27.2599752 4.0835636 27.067219-4.0835636-4.483189 57.3159965-22.58403 5.705802-23.7847571-5.705802z" fill="#e5e7e8" stroke="#ccc"/><path d="m32.096378 10.745857 21.829036-3.9157453-2.90884 46.9889483-18.920196 4.698895z" fill="#fff"/><path d="m3.755714 22.431904h34.027256v19.136194h-34.027256z" fill="#ff2600"/><path d="m36.763767 22.431904h23.480518v19.136194h-23.480518z" fill="#ff501a"/><g fill="#fff" transform="matrix(.42778543 0 0 .42778543 58.617711 9.673706)"><path d="m-120.53125 34.59375v35.1875h6.53125v-5.9375-5.96875h8.875l4.15625-3.71875v-7.71875-7.71875l-4.21875-4.125zm6.53125 6.8125h6.21875v10.21875h-6.21875z"/><path d="m-98.125 34.59375v35.1875h16.125l3.75-3.625v-27.96875l-3.96875-3.59375zm6.8125 6.8125h6.8125v21.5625h-6.8125z"/><path d="m-74.856072 34.602929h16.457091v6.80983c-3.404915 0-6.809831 0-10.214746 0v7.416206c2.93201.110496 5.864021-.110494 8.796031 0v3.366025 3.375914c-2.93201.110495-5.864021-.110495-8.796031 0v7.146446 7.069702c-2.080782 0-4.161563 0-6.242345 0 0-11.728041 0-23.456082 0-35.184123z"/><path d="m-42.8813 67.942723-2.181762-1.844329c0-1.986871 0-3.973742 0-5.960613 2.175363.00067 4.350725.0013 6.526088.002v2.837429h5.674858c0-9.458098 0-18.916195 0-28.374293 2.175363-.000126 4.350725-.000252 6.526088-.000378v31.495843c-1.454508 1.229554-2.909019 2.459106-4.363529 3.688658-3.333325 0-6.666651 0-9.999976 0-.727237-.614768-1.454563-1.229595-2.181767-1.844308z"/><path d="m-21.316836 67.942723-2.109122-1.844329v-5.978379c2.061011 0 4.392437.01978 6.453448.01978v2.837429h6.80983c0-2.459105 0-4.918211 0-7.377316-3.196954 0-6.393909 0-9.590863 0l-3.745055-3.688659v-6.80983-6.80983l3.745055-3.688658h11.5894692l4.2511106 3.688658c-.00204 1.797039-.00472 3.594077-.00737 5.391115-2.0807816 0-4.1615632 0-6.2423448 0 0-.756648 0-1.513295 0-2.269943-2.269943 0-4.539887 0-6.80983 0v7.377316h8.9703792c1.3605964 1.204585 4.0817956 3.613749 4.0817956 3.613749v13.665738l-2.0892845 1.858745-2.0892901 1.858745h-5.5180792-5.51808z"/></g></svg>