<svg enable-background="new 0 0 24 24" viewBox="0 0 24 24" xmlns="http://www.w3.org/2000/svg" xmlns:xlink="http://www.w3.org/1999/xlink"><linearGradient id="a"><stop offset="0" stop-color="#4592c4"/><stop offset="1" stop-color="#545acd"/></linearGradient><linearGradient id="b" gradientUnits="userSpaceOnUse" x1=".9122" x2="23.1969" xlink:href="#a" y1="8.1983" y2="8.1983"/><linearGradient id="c" gradientUnits="userSpaceOnUse" x1=".6056" x2="23.3944" xlink:href="#a" y1="12.6427" y2="12.6427"/><path d="m1.6 6.1c.6.3 9 4.9 9.3 5 .3.2.6.2 1.1.2s.8-.1 1.1-.2c.3-.2 8.7-4.7 9.3-5 .2-.1.6-.3.7-.6.1-.4 0-.6-.6-.6h-10.4-10.5c-.6.1-.8.3-.6.7 0 .2.4.4.6.5z" fill="url(#b)"/><path d="m22.9 6.4c-.4.2-4.5 3.1-7.1 4.8l4.5 5.1c.1.1.2.2.1.3s-.2 0-.3-.1l-5.4-4.6c-.8.5-1.4.9-1.5.9-.4.2-.7.2-1.1.2s-.7 0-1.1-.2c-.1-.1-.7-.4-1.5-.9l-5.5 4.6c-.1.1-.3.1-.3.1-.1-.1 0-.2.1-.3l4.5-5.1c-2.7-1.7-6.7-4.6-7.2-4.8s-.5 0-.5.3v11.2c0 .5.8 1.1 1.3 1.1h10.2 10.2c.5 0 1.2-.6 1.2-1.1 0 0 0-11 0-11.2-.1-.3-.1-.6-.6-.3z" fill="url(#c)"/></svg>