<svg enable-background="new 0 0 24 24" viewBox="0 0 24 24" xmlns="http://www.w3.org/2000/svg" xmlns:xlink="http://www.w3.org/1999/xlink"><linearGradient id="a" gradientUnits="userSpaceOnUse" x1="1.0181" x2="22.9819" y1="12" y2="12"><stop offset="0" stop-color="#4592c4"/><stop offset="1" stop-color="#545acd"/></linearGradient><path d="m12 1.3c-6.1 0-11 4.9-11 11 0 4.9 3.1 9 7.5 10.4.5.1.8-.2.8-.5s0-1.1 0-2c-2.8.5-3.5-.7-3.7-1.3-.1-.3-.7-1.3-1.1-1.6-.4-.2-.9-.7 0-.7s1.5.8 1.7 1.1c1 1.7 2.6 1.2 3.2.9.1-.7.4-1.2.7-1.5-2.4-.3-5-1.2-5-5.4 0-1.2.4-2.2 1.1-3-.2-.2-.5-1.4.1-2.9 0 0 .9-.3 3 1.1.9-.2 1.8-.4 2.7-.4s1.9.1 2.7.4c2.1-1.4 3-1.1 3-1.1.6 1.5.2 2.6.1 2.9.7.8 1.1 1.7 1.1 3 0 4.2-2.6 5.1-5 5.4.4.3.7 1 .7 2v3c0 .3.2.6.8.5 4.3-1.5 7.5-5.6 7.5-10.4.1-6-4.8-10.9-10.9-10.9z" fill="url(#a)"/></svg>