<svg enable-background="new 0 0 24 24" viewBox="0 0 24 24" xmlns="http://www.w3.org/2000/svg" xmlns:xlink="http://www.w3.org/1999/xlink"><linearGradient id="a"><stop offset="0" stop-color="#4592c4"/><stop offset="1" stop-color="#545acd"/></linearGradient><linearGradient id="b" gradientUnits="userSpaceOnUse" x1="4.7893" x2="6.7712" xlink:href="#a" y1="12.0669" y2="12.0669"/><linearGradient id="c" gradientUnits="userSpaceOnUse" x1=".4529" x2="23.5471" xlink:href="#a" y1="12" y2="12"/><path d="m4.8 13h1.6l.4-1.8h-1.7z" fill="url(#b)"/><path d="m21.6 17.8c0-.1.1-.1.1-.2 1.2-1.7 1.8-3.8 1.8-6 0-6.2-5.2-11.2-11.5-11.2s-11.5 5-11.5 11.2 5.2 11.1 11.6 11.1c1.6 0 3.1-.3 4.5-.9h.1c.2-.1.4-.1.6-.1s.5 0 .7.1l4.7 1.7-1.2-4.9c-.1-.3-.1-.5.1-.8zm-12.5-6.6h-1.6l-.3 1.8h1.5v.7h-1.7l-.4 2.3h-.8l.5-2.3h-1.6l-.5 2.3h-.7l.4-2.3h-1.4v-.7h1.5l.4-1.8h-1.5v-.7h1.6l.5-2.4h.7l-.4 2.3h1.6l.5-2.3h.7l-.5 2.3h1.4v.8zm2.1 4.8h-.9v-5.9h.9zm-.1-7.1c-.1.1-.2.2-.4.2s-.3 0-.4-.1-.2-.2-.2-.4.1-.4.2-.4c.1-.1.2-.1.4-.1.1 0 .3 0 .4.1s.2.2.2.4-.1.3-.2.3zm5.2 2c-.2-.1-.5-.1-.6-.1-.5 0-.9.2-1.2.6s-.5.9-.5 1.4v3.2h-.9v-5.9h.7l.1 1.1c.2-.4.5-.7.8-.9s.6-.3 1-.3c.3 0 .5 0 .7.1zm1.6 4.4c-.5-.5-.7-1.3-.7-2.2 0-1 .2-1.7.7-2.3s1.2-.8 2-.8c.3 0 .6 0 .8.1.3.1.5.1.7.2l-.3.8c-.2-.1-.4-.1-.6-.2s-.4-.1-.6-.1c-1.2 0-1.8.8-1.8 2.3 0 .7.1 1.3.4 1.7s.7.6 1.3.6c.5 0 1-.1 1.5-.3v.8c-.4.2-.9.3-1.5.3-.7-.1-1.4-.4-1.9-.9z" fill="url(#c)"/></svg>