<svg height="512" width="512" xmlns="http://www.w3.org/2000/svg"><path d="m256 5.479-154.695 28.576c-5.467-3.893-12.21-6.096-19.432-6.096-18.322 0-33.148 14.827-33.148 33.149 0 12.492 6.942 23.487 17.145 29.148v223.088c0 21.002 9.397 43.685 28.006 67.44 16.486 21.017 39.798 42.58 69.345 64.012 21.11 15.26 41.994 27.898 59.82 37.912 4.026 13.809 16.897 23.813 32.006 23.813 14.621 0 27-9.356 31.435-22.48 18.316-10.193 40.176-23.254 62.297-39.245 29.56-21.433 52.859-42.995 69.345-64.012 18.623-23.783 28.005-46.438 28.005-67.44v-223.279c10.126-5.685 17.146-16.529 17.146-28.957 0-18.322-15.017-33.15-33.339-33.15-7.126 0-13.661 2.285-19.05 6.097zm-.381 32.958 141.359 26.1c.201 2.075.385 3.96.952 5.906l-82.872 53.914c-14.824-16.08-36.127-26.29-59.63-26.29-23.671 0-45.104 10.378-60.01 26.671l-81.92-53.152c.75-2.297 1.102-4.754 1.333-7.24zm152.408 47.437c2.762 2.426 6.066 4.498 9.526 5.906v216.99c0 2.857-.255 5.915-.762 8.954-3.333 13.26-10.646 27.148-21.909 41.532-14.112 17.99-34.135 36.33-59.44 54.676-20.467 14.797-40.832 26.833-57.153 35.816-5.993-5.895-14.17-9.525-23.242-9.525-8.72 0-16.554 3.456-22.48 8.954-16.147-8.93-36-20.78-56.01-35.245-25.292-18.346-45.136-36.686-59.249-54.676-13.444-17.163-21.311-33.61-23.433-49.152-.01-.434 0-.904 0-1.334v-216.609c3.368-1.294 6.41-3.268 9.145-5.525l104.971 67.631c9.03-16.904 26.854-28.386 47.437-28.386 20.753 0 38.565 11.441 47.438 28.577zm-230.518 70.68c-2.192 7.338-3.429 15.028-3.429 23.051 0 23.123 9.93 43.661 25.529 58.487l-28.577 57.534c-.128-.002-.252 0-.381 0-13.528 0-24.576 11.048-24.576 24.576s11.048 24.385 24.576 24.385c7.31 0 13.83-3.144 18.289-8.192h42.293v-27.624h-35.816l33.72-67.821c2.92-5.867.987-13.768-4.381-17.527-13.895-9.699-23.052-25.485-23.052-43.818 0-2.367.278-4.764.571-7.049l-24.766-16.003zm155.838.19-24.957 16.193c.266 2.189.571 4.403.571 6.668 0 18.277-9.017 33.912-22.86 43.627-5.369 3.758-7.302 11.66-4.383 17.527l33.53 68.012h-35.816v27.624h43.818c4.509 5.031 10.993 8.192 18.289 8.192a24.309 24.309 0 0 0 24.385-24.386c0-13.527-10.858-24.575-24.385-24.575-.586 0-1.14.15-1.715.19l-28.767-57.916c15.527-14.81 25.528-35.227 25.528-58.296 0-7.921-1.111-15.604-3.238-22.861zm-78.3 2.476c-12.329 0-22.29 10.151-22.29 22.48 0 12.33 9.961 22.29 22.29 22.29 12.33 0 22.29-9.96 22.29-22.29 0-12.329-9.96-22.48-22.29-22.48z" fill="#fff"/></svg>