<svg enable-background="new 0 0 24 24" viewBox="0 0 24 24" xmlns="http://www.w3.org/2000/svg" xmlns:xlink="http://www.w3.org/1999/xlink"><linearGradient id="a" gradientUnits="userSpaceOnUse" x1=".4529" x2="23.5471" y1="12" y2="12"><stop offset="0" stop-color="#4592c4"/><stop offset="1" stop-color="#545acd"/></linearGradient><path d="m12 22.7c1.6 0 3.1-.3 4.5-.9h.1c.2-.1.4-.1.6-.1s.5 0 .7.1l4.7 1.7-1.2-4.9c0-.3.1-.6.2-.8 0-.1.1-.1.1-.2 1.2-1.7 1.8-3.8 1.8-6 0-6.2-5.2-11.2-11.5-11.2s-11.5 5-11.5 11.2 5.1 11.1 11.5 11.1zm5.3-12.5c1 0 1.8.8 1.8 1.8s-.8 1.8-1.8 1.8-1.8-.8-1.8-1.8.9-1.8 1.8-1.8zm-5.3 0c1 0 1.8.8 1.8 1.8s-.8 1.8-1.8 1.8-1.8-.8-1.8-1.8.8-1.8 1.8-1.8zm-5.3 0c1 0 1.8.8 1.8 1.8s-.8 1.8-1.8 1.8-1.8-.8-1.8-1.8.8-1.8 1.8-1.8z" fill="url(#a)"/></svg>