<svg enable-background="new 0 0 24 24" viewBox="0 0 24 24" xmlns="http://www.w3.org/2000/svg" xmlns:xlink="http://www.w3.org/1999/xlink"><linearGradient id="a" gradientUnits="userSpaceOnUse" x1=".3991" x2="23.6009" y1="12" y2="12"><stop offset="0" stop-color="#4592c4"/><stop offset="1" stop-color="#545acd"/></linearGradient><path d="m23.6 4.8c-.9.4-1.8.6-2.7.8 1-.6 1.7-1.6 2.1-2.7-.9.5-1.9.9-3 1.2-.9-.9-2.1-1.5-3.5-1.5-2.6 0-4.8 2.1-4.8 4.8 0 .4 0 .7.1 1.1-4-.2-7.5-2.1-9.8-5-.4.6-.6 1.5-.6 2.3 0 1.7.8 3.1 2.1 4-.8 0-1.5-.2-2.2-.6v.1c0 2.3 1.6 4.2 3.8 4.7-.4.1-.8.2-1.3.2-.3 0-.6 0-.9-.1.6 1.9 2.4 3.3 4.4 3.3-1.6 1.3-3.7 2-5.9 2-.4 0-.8 0-1.1-.1 2.1 1.4 4.6 2.2 7.3 2.2 8.8 0 13.6-7.3 13.6-13.6 0-.2 0-.4 0-.6 1-.7 1.8-1.5 2.4-2.5z" fill="url(#a)"/></svg>