<svg viewBox="0 0 393.94 476.2" xmlns="http://www.w3.org/2000/svg"><g opacity=".04"><path d="m139.36 288.16 32.07-64.43a13.59 13.59 0 0 0 -4.23-16.62 48.65 48.65 0 0 1 -21.28-48.25l-23.47-15.31a75.74 75.74 0 0 0 -3.36 21.87c0 22 9.52 41.45 24.35 55.54l-27.24 54.8c-.11 0-.2 0-.31 0a23.27 23.27 0 1 0 0 46.53 23 23 0 0 0 17.31-7.86h40.27v-26.27z" fill="#999"/><path d="m278.28 275.73c-.57 0-1.11.13-1.68.17l-27.33-55.09c14.75-14.07 24.2-33.47 24.2-55.39a77.13 77.13 0 0 0 -3.06-21.72l-23.62 15.45a51.69 51.69 0 0 1 .44 6.27 50.21 50.21 0 0 1 -21.58 41.58 13.58 13.58 0 0 0 -4.22 16.62l31.77 64.58h-34v26.2h41.63a23.23 23.23 0 1 0 17.41-38.67z" fill="#999"/><g fill="#4591c4"><circle cx="196.06" cy="167.4" r="21.21"/><path d="m362.25 21.36a31.14 31.14 0 0 0 -18.1 5.8l-147.15-27.16-147 27.16a31.62 31.62 0 1 0 -33.68 53.4v212c0 19.95 8.93 41.51 26.62 64.08 15.66 20 37.82 40.46 65.89 60.83a603 603 0 0 0 57 36.21 31.54 31.54 0 0 0 60 1.25 606 606 0 0 0 59.26-37.46c28.09-20.37 50.23-40.86 65.9-60.83 17.7-22.6 26.61-44.13 26.61-64.08v-212.18a31.46 31.46 0 0 0 -15.39-59zm-299.43 34.58 133.79-24.62 134.33 24.8a29.58 29.58 0 0 0 .9 5.61l-78.75 51.27a76.78 76.78 0 0 0 -113.69.36l-77.85-50.54a31.8 31.8 0 0 0 1.27-6.88zm287.67 232.27a51.41 51.41 0 0 1 -.73 8.51c-3.16 12.6-10.11 25.8-20.82 39.47-13.41 17.09-32.43 34.52-56.48 51.95a532.75 532.75 0 0 1 -54.19 34.09 31.5 31.5 0 0 0 -43.73-.62 534 534 0 0 1 -53.06-33.47c-24-17.43-42.9-34.86-56.31-51.95-12.77-16.31-20.25-31.94-22.26-46.71 0-.41 0-.86 0-1.27v-205.84a31.51 31.51 0 0 0 8.69-5.25l88.88 57.75.37-.36 10.5 6.88a51 51 0 0 1 45.07-27 50.37 50.37 0 0 1 45.08 27.15l22.09-14.3 77.85-50.84a32.55 32.55 0 0 0 9.05 5.6z"/></g></g></svg>