<svg enable-background="new 0 0 24 24" viewBox="0 0 24 24" xmlns="http://www.w3.org/2000/svg" xmlns:xlink="http://www.w3.org/1999/xlink"><linearGradient id="a" gradientUnits="userSpaceOnUse" x1="4" x2="20" y1="12" y2="12"><stop offset="0" stop-color="#4592c4"/><stop offset="1" stop-color="#545acd"/></linearGradient><path d="m13 14c-3.4 0-4.5 1.4-4.8 2.2 1.1.5 1.8 1.6 1.8 2.8 0 1.7-1.3 3-3 3s-3-1.3-3-3c0-1.3.8-2.4 2-2.8v-8.4c-1.2-.4-2-1.5-2-2.8 0-1.7 1.3-3 3-3s3 1.3 3 3c0 1.3-.8 2.4-2 2.8v5.3c.9-.6 2.2-1.1 4-1.1 2.7 0 3.6-1.3 3.9-2.2-1.1-.5-1.9-1.5-1.9-2.8 0-1.7 1.3-3 3-3s3 1.3 3 3c0 1.3-.9 2.5-2.1 2.9-.3 1.4-1.2 4.1-4.9 4.1m-6 4c-.6 0-1 .4-1 1s.4 1 1 1 1-.4 1-1-.4-1-1-1m0-14c-.6 0-1 .4-1 1s.4 1 1 1 1-.4 1-1-.4-1-1-1m10 2c-.6 0-1 .4-1 1s.4 1 1 1 1-.4 1-1-.4-1-1-1z" fill="url(#a)"/></svg>