<svg enable-background="new 0 0 26 25" viewBox="0 0 26 25" xmlns="http://www.w3.org/2000/svg"><g fill="#4591c4"><path d="m8.5 12h-4.1c.5-3.5 2.9-6.5 6.2-7.7h.2c1-.4 1.6-1.5 1.2-2.6-.4-1-1.5-1.6-2.6-1.2h-.2c-5.3 2-8.8 7.1-8.8 12.7v7.4c-.1 2 1.4 3.8 3.5 3.9h.4 4c2 .1 3.7-1.5 3.8-3.6v-.1-5c0-2-1.6-3.7-3.6-3.8zm-.3 8.6h-3.9v-4.7h3.9z"/><path d="m25.5 15.8c0-2.1-1.7-3.8-3.8-3.8h-.1-3.8c.5-3.5 2.9-6.5 6.2-7.7h.2c1-.4 1.6-1.5 1.2-2.6s-1.4-1.5-2.5-1.2h-.2c-5.3 2-8.8 7.1-8.8 12.7v7.6c.1 2 1.7 3.6 3.7 3.7h4.1c2 .1 3.8-1.4 3.9-3.5 0-.1 0-.3 0-.4zm-3.8 4.9h-3.9v-4.8h3.9v4.6z"/></g></svg>